<?xml version="1.0" encoding="UTF-8"?>
<svg xmlns="http://www.w3.org/2000/svg" xmlns:xlink="http://www.w3.org/1999/xlink" width="24px" height="24px" viewBox="0 0 24 24" version="1.1">
<g id="surface1">
<path style=" stroke:none;fill-rule:nonzero;fill:rgb(1.568628%,83.137256%,67.450982%);fill-opacity:1;" d="M 24.03125 11.976562 C 24.03125 18.613281 18.644531 24 12.015625 24 C 5.378906 24 0 18.613281 0 11.976562 C 0 5.339844 5.378906 -0.046875 12.015625 -0.046875 C 18.644531 -0.046875 24.03125 5.339844 24.03125 11.976562 Z M 12.9375 17.226562 C 11.863281 17.015625 11.226562 16.394531 9.601562 13.980469 C 9.058594 13.171875 9.058594 13.171875 8.535156 13.132812 C 7.761719 13.078125 7.824219 12.945312 7.84375 14.648438 C 7.875 16.582031 7.851562 16.539062 8.96875 16.726562 C 9.261719 16.769531 9.285156 16.792969 9.285156 16.964844 C 9.285156 17.160156 9.285156 17.160156 7.320312 17.175781 C 5.476562 17.191406 5.355469 17.183594 5.316406 17.070312 C 5.242188 16.851562 5.355469 16.746094 5.761719 16.671875 C 6.21875 16.589844 6.457031 16.402344 6.515625 16.085938 C 6.546875 15.96875 6.554688 14.347656 6.539062 12.488281 C 6.515625 8.578125 6.5625 8.8125 5.84375 8.65625 C 5.390625 8.558594 5.25 8.453125 5.308594 8.273438 C 5.355469 8.152344 5.453125 8.144531 7.5 8.109375 C 10.546875 8.046875 11.113281 8.144531 11.925781 8.863281 C 12.773438 9.621094 12.890625 10.777344 12.21875 11.746094 C 11.917969 12.179688 11.316406 12.644531 10.851562 12.816406 C 10.636719 12.898438 10.453125 12.988281 10.453125 13.019531 C 10.453125 13.109375 11.144531 14.09375 11.574219 14.617188 C 12.710938 16.003906 13.328125 16.546875 13.964844 16.710938 C 14.363281 16.816406 14.476562 16.925781 14.363281 17.121094 C 14.242188 17.324219 13.640625 17.371094 12.9375 17.226562 Z M 10.066406 12.253906 C 11.566406 11.640625 11.675781 9.578125 10.253906 8.96875 C 9.886719 8.8125 9.789062 8.804688 8.863281 8.804688 C 7.867188 8.804688 7.867188 8.804688 7.851562 10.539062 C 7.835938 11.488281 7.84375 12.316406 7.867188 12.359375 C 7.933594 12.515625 9.621094 12.433594 10.066406 12.253906 Z M 15.292969 10.117188 C 14.128906 9.898438 13.746094 9.1875 13.808594 7.359375 C 13.835938 6.34375 13.921875 6.066406 14.308594 5.648438 C 15 4.90625 16.710938 4.972656 17.339844 5.765625 C 17.609375 6.105469 17.585938 6.210938 17.210938 6.324219 C 16.921875 6.421875 16.921875 6.421875 16.648438 6.148438 C 16.011719 5.535156 14.910156 5.761719 14.714844 6.554688 C 14.617188 6.90625 14.625 8.398438 14.722656 8.738281 C 14.984375 9.691406 16.566406 9.691406 16.835938 8.738281 C 17.003906 8.128906 16.964844 8.085938 16.238281 8.046875 C 15.886719 8.03125 15.886719 8.03125 15.886719 7.738281 C 15.886719 7.453125 15.886719 7.453125 16.726562 7.433594 C 17.8125 7.410156 17.796875 7.394531 17.746094 8.191406 C 17.675781 9.1875 17.40625 9.667969 16.753906 9.953125 C 16.328125 10.132812 15.742188 10.199219 15.292969 10.117188 Z M 15.292969 10.117188 "/>
<path style=" stroke:none;fill-rule:nonzero;fill:rgb(100%,100%,100%);fill-opacity:1;" d="M 12.9375 17.226562 C 11.863281 17.015625 11.226562 16.394531 9.601562 13.980469 C 9.058594 13.171875 9.058594 13.171875 8.535156 13.132812 C 7.761719 13.078125 7.824219 12.945312 7.84375 14.648438 C 7.875 16.582031 7.851562 16.539062 8.96875 16.726562 C 9.261719 16.769531 9.285156 16.792969 9.285156 16.964844 C 9.285156 17.160156 9.285156 17.160156 7.320312 17.175781 C 5.476562 17.191406 5.355469 17.183594 5.316406 17.070312 C 5.242188 16.851562 5.355469 16.746094 5.761719 16.671875 C 6.21875 16.589844 6.457031 16.402344 6.515625 16.085938 C 6.546875 15.96875 6.554688 14.347656 6.539062 12.488281 C 6.515625 8.578125 6.5625 8.8125 5.84375 8.65625 C 5.390625 8.558594 5.25 8.453125 5.308594 8.273438 C 5.355469 8.152344 5.453125 8.144531 7.5 8.109375 C 10.546875 8.046875 11.113281 8.144531 11.925781 8.863281 C 12.773438 9.621094 12.890625 10.777344 12.21875 11.746094 C 11.917969 12.179688 11.316406 12.644531 10.851562 12.816406 C 10.636719 12.898438 10.453125 12.988281 10.453125 13.019531 C 10.453125 13.109375 11.144531 14.09375 11.574219 14.617188 C 12.710938 16.003906 13.328125 16.546875 13.964844 16.710938 C 14.363281 16.816406 14.476562 16.925781 14.363281 17.121094 C 14.242188 17.324219 13.640625 17.371094 12.9375 17.226562 Z M 10.066406 12.253906 C 11.566406 11.640625 11.675781 9.578125 10.253906 8.96875 C 9.886719 8.8125 9.789062 8.804688 8.863281 8.804688 C 7.867188 8.804688 7.867188 8.804688 7.851562 10.539062 C 7.835938 11.488281 7.84375 12.316406 7.867188 12.359375 C 7.933594 12.515625 9.621094 12.433594 10.066406 12.253906 Z M 15.292969 10.117188 C 14.128906 9.898438 13.746094 9.1875 13.808594 7.359375 C 13.835938 6.34375 13.921875 6.066406 14.308594 5.648438 C 15 4.90625 16.710938 4.972656 17.339844 5.765625 C 17.609375 6.105469 17.585938 6.210938 17.210938 6.324219 C 16.921875 6.421875 16.921875 6.421875 16.648438 6.148438 C 16.011719 5.535156 14.910156 5.761719 14.714844 6.554688 C 14.617188 6.90625 14.625 8.398438 14.722656 8.738281 C 14.984375 9.691406 16.566406 9.691406 16.835938 8.738281 C 17.003906 8.128906 16.964844 8.085938 16.238281 8.046875 C 15.886719 8.03125 15.886719 8.03125 15.886719 7.738281 C 15.886719 7.453125 15.886719 7.453125 16.726562 7.433594 C 17.8125 7.410156 17.796875 7.394531 17.746094 8.191406 C 17.675781 9.1875 17.40625 9.667969 16.753906 9.953125 C 16.328125 10.132812 15.742188 10.199219 15.292969 10.117188 Z M 15.292969 10.117188 Z M 15.292969 10.117188 "/>
</g>
</svg>
